<svg xmlns="http://www.w3.org/2000/svg" viewBox="0 0 725 435">
  <style>
    @media (prefers-color-scheme: dark) {
      path {
        fill: white;
      }
    }
  </style>
  <path fill="currentColor" d="M217.212,144.807L181.016,108.611L217.22,0L289.628,72.408L289.627,72.409L362.026,144.808L362.022,144.813L434.429,217.22L362.022,289.628L362.026,289.632L289.627,362.032L289.628,362.033L217.22,434.44L144.812,362.033L217.212,289.633L217.211,289.632L289.616,217.228L289.604,217.216L289.612,217.208L217.211,144.808L217.212,144.807ZM434.44,72.412L506.832,0.021L543.036,108.632L506.832,144.836L506.829,144.833L434.439,217.224L506.838,289.623L579.238,217.222L651.646,289.63L579.238,362.037L579.237,362.035L506.836,434.436L434.428,362.028L434.428,362.028L362.03,289.63L434.437,217.224L362.03,144.817L434.438,72.41L434.44,72.412ZM72.406,289.613L0,217.206L108.611,181.003L144.815,217.206L144.795,217.226L217.202,289.632L144.794,362.04L72.387,289.632L72.406,289.613ZM615.456,181.012L724.068,217.216L651.66,289.623L579.253,217.216L615.456,181.012Z" />
</svg>
